# xmcd
#
# Track frame offsets:
#	150
#	10747
#	28959
#	47314
#	68414
#	87994
#	108722
#	129430
#	145219
#	163894
#	168114
#	185787
#	210519
#	237412
#	256486
#	272049
#	296047
#	314150
#	332744
#
# Disc length: 4708 seconds
#
# Revision: 2
# Processed by: cddbd v1.4b41PL1 Copyright (c) Steve Scherf et al.
# Submitted via: EZCDDA 4.3.2
#
DISCID=1d126213
DTITLE=R. Kelly - TP2.Com
DYEAR=1900
DGENRE=
TTITLE0=TP-2.com
TTITLE1=Strip for you
TTITLE2=R and B thug
TTITLE3=The greatest sex
TTITLE4=I don't mean it
TTITLE5=Just like that
TTITLE6=Like a real freak
TTITLE7=Fiesta f. jadakiss
TTITLE8=Don't you say no
TTITLE9=The real R. Kelly
TTITLE10=One me
TTITLE11=I wish
TTITLE12=A womens threat
TTITLE13=Decided
TTITLE14=I mean, I don't mean it
TTITLE15=I wish (remix)
TTITLE16=All I really want
TTITLE17=Feelin' on your booty
TTITLE18=The storm is over now
EXTD=
EXTT0=
EXTT1=
EXTT2=
EXTT3=
EXTT4=
EXTT5=
EXTT6=
EXTT7=
EXTT8=
EXTT9=
EXTT10=
EXTT11=
EXTT12=
EXTT13=
EXTT14=
EXTT15=
EXTT16=
EXTT17=
EXTT18=
PLAYORDER=
